HIERARCHY
ROOT Hips
{
    OFFSET 0.000000 0.000000 0.000000
    CHANNELS 6 Xposition Yposition Zposition Zrotation Xrotation Yrotation
    JOINT Spine
    {
        OFFSET -0.000000 14.517291 0.000000
        CHANNELS 3 Zrotation Xrotation Yrotation
        JOINT Spine1
        {
            OFFSET -0.000000 37.558300 0.000000
            CHANNELS 3 Zrotation Xrotation Yrotation
            JOINT Neck
            {
                OFFSET -0.000000 37.404057 3.400369
                CHANNELS 3 Zrotation Xrotation Yrotation
                JOINT Head
                {
                    OFFSET -0.000000 24.785618 -3.540803
                    CHANNELS 3 Zrotation Xrotation Yrotation
                    End Site
                    {
                        OFFSET -0.000000 35.408028 0.000000
                    }
                }
            }
            JOINT LeftShoulder
            {
                OFFSET 6.992933 33.973492 -0.192664
                CHANNELS 3 Zrotation Xrotation Yrotation
                JOINT LeftArm
                {
                    OFFSET 21.527611 0.000000 0.000000
                    CHANNELS 3 Zrotation Xrotation Yrotation
                    JOINT LeftForeArm
                    {
                        OFFSET 56.353916 0.000000 0.000000
                        CHANNELS 3 Zrotation Xrotation Yrotation
                        JOINT LeftHand
                        {
                            OFFSET 47.774071 0.000000 0.000000
                            CHANNELS 3 Zrotation Xrotation Yrotation
                            End Site
                            {
                                OFFSET 26.556021 0.000000 0.000000
                            }
                        }
                    }
                }
            }
            JOINT RightShoulder
            {
                OFFSET -7.065357 33.973492 -0.192664
                CHANNELS 3 Zrotation Xrotation Yrotation
                JOINT RightArm
                {
                    OFFSET -21.527611 0.000000 0.000000
                    CHANNELS 3 Zrotation Xrotation Yrotation
                    JOINT RightForeArm
                    {
                        OFFSET -56.353916 0.000000 0.000000
                        CHANNELS 3 Zrotation Xrotation Yrotation
                        JOINT RightHand
                        {
                            OFFSET -47.774071 0.000000 0.000000
                            CHANNELS 3 Zrotation Xrotation Yrotation
                            End Site
                            {
                                OFFSET -26.556021 0.000000 0.000000
                            }
                        }
                    }
                }
            }
        }
    }
    JOINT LeftUpLeg
    {
        OFFSET 17.704014 0.000000 0.000000
        CHANNELS 3 Zrotation Xrotation Yrotation
        JOINT LeftLeg
        {
            OFFSET -0.000000 -81.181816 0.000000
            CHANNELS 3 Zrotation Xrotation Yrotation
            JOINT LeftFoot
            {
                OFFSET -0.000000 -62.821102 0.000000
                CHANNELS 3 Zrotation Xrotation Yrotation
                JOINT LeftToeBase
                {
                    OFFSET -0.000000 -11.507608 26.556021
                    CHANNELS 3 Zrotation Xrotation Yrotation
                    End Site
                    {
                        OFFSET -0.000000 0.000000 7.081605
                    }
                }
            }
        }
    }
    JOINT RightUpLeg
    {
        OFFSET -17.704014 0.000000 0.000000
        CHANNELS 3 Zrotation Xrotation Yrotation
        JOINT RightLeg
        {
            OFFSET -0.000000 -81.181816 0.000000
            CHANNELS 3 Zrotation Xrotation Yrotation
            JOINT RightFoot
            {
                OFFSET -0.000000 -62.821102 0.000000
                CHANNELS 3 Zrotation Xrotation Yrotation
                JOINT RightToeBase
                {
                    OFFSET -0.000000 -11.507608 26.556021
                    CHANNELS 3 Zrotation Xrotation Yrotation
                    End Site
                    {
                        OFFSET -0.000000 0.000000 7.081605
                    }
                }
            }
        }
    }
}
MOTION
Frames:    10
Frame Time:    0.008333
24.332321    156.401291    -35.404396    1.604185    -0.668356    -43.498638    3.325895    -1.519185    2.317835    -2.608747    2.186058    0.806121    18.820208    -4.233238    15.421778    -10.509562    9.869925    11.950808    11.322315    0.020720    -18.334522    -12.609676    -17.896002    -44.086132    9.105224    -36.930672    -28.518509    -26.852901    -25.776098    -42.897125    -15.829899    -7.372760    1.878979    16.084328    -22.222813    53.653965    4.222527    11.003850    93.579369    4.272408    7.787313    32.318893    16.889086    -19.366959    3.699946    -11.326785    17.516985    -3.850682    -8.761662    0.660232    37.896152    0.000000    0.000000    0.000000    -15.476684    1.836882    -7.325860    6.544057    27.183567    -2.484705    5.312357    -21.505835    -17.389406    0.000000    0.000000    0.000000    
24.320982    156.394806    -35.400951    1.605392    -0.681165    -43.501637    3.308798    -1.517371    2.317213    -2.587559    2.193364    0.805779    18.821791    -4.233214    15.426033    -10.505151    9.853454    11.953673    11.329483    0.020425    -18.335266    -12.602471    -17.909199    -44.079193    9.098986    -36.937340    -28.506914    -26.842545    -25.792892    -42.884636    -15.793859    -7.341901    1.860554    16.092585    -22.194202    53.644485    4.211044    10.952692    93.585190    4.256066    7.740845    32.273399    16.881950    -19.360186    3.702086    -11.329480    17.530062    -3.835882    -8.739404    0.660831    37.880749    0.000000    0.000000    0.000000    -15.487716    1.842748    -7.324387    6.541683    27.202757    -2.473974    5.335880    -21.535261    -17.375996    0.000000    0.000000    0.000000    
24.309990    156.390656    -35.390350    1.603737    -0.697576    -43.501102    3.300064    -1.502239    2.306551    -2.573599    2.185143    0.801990    18.841042    -4.230720    15.436177    -10.534698    9.851162    11.959190    11.332557    0.022136    -18.322433    -12.613977    -17.936605    -44.082886    9.070292    -36.938663    -28.503012    -26.847969    -25.800165    -42.880909    -15.775081    -7.324453    1.854370    16.133844    -22.142872    53.631824    4.198058    10.913572    93.602043    4.223039    7.702031    32.223434    16.869694    -19.346846    3.685943    -11.333962    17.535587    -3.820625    -8.740370    0.647008    37.881798    0.000000    0.000000    0.000000    -15.501706    1.907551    -7.324079    6.555909    27.107147    -2.479599    5.301314    -21.537289    -17.367727    0.000000    0.000000    0.000000    
24.299252    156.386612    -35.380669    1.599908    -0.711642    -43.502556    3.283187    -1.494221    2.298352    -2.540988    2.184942    0.798803    18.833212    -4.221607    15.433256    -10.535837    9.826361    11.956806    11.327707    0.018268    -18.328588    -12.616980    -17.960165    -44.068352    9.050879    -36.918896    -28.494772    -26.827888    -25.791613    -42.876484    -15.747528    -7.269115    1.841313    16.149986    -22.087139    53.629730    4.166072    10.825543    93.602348    4.231124    7.650099    32.246765    16.865267    -19.333563    3.684458    -11.336180    17.547987    -3.835547    -8.734472    0.635162    37.886406    0.000000    0.000000    0.000000    -15.512698    1.923790    -7.322566    6.562258    27.110197    -2.479184    5.291150    -21.544291    -17.369087    0.000000    0.000000    0.000000    
24.288855    156.382645    -35.369205    1.595303    -0.717260    -43.505630    3.277780    -1.493080    2.287500    -2.510868    2.187482    0.794656    18.813095    -4.214712    15.434902    -10.526930    9.801886    11.961727    11.319987    0.009828    -18.328167    -12.622159    -17.974169    -44.054420    9.025928    -36.927303    -28.496481    -26.824209    -25.809673    -42.869858    -15.731371    -7.208914    1.829370    16.183264    -22.030224    53.634106    4.161698    10.745828    93.612259    4.281471    7.586197    32.209496    16.864277    -19.323820    3.673463    -11.336551    17.558752    -3.842361    -8.744479    0.610963    37.899342    0.000000    0.000000    0.000000    -15.516319    1.931441    -7.312041    6.566337    27.119930    -2.482182    5.300766    -21.549612    -17.362932    0.000000    0.000000    0.000000    
24.280745    156.379288    -35.361843    1.592713    -0.720721    -43.508259    3.273077    -1.494571    2.279847    -2.487389    2.190547    0.791701    18.831224    -4.214232    15.443932    -10.555156    9.804479    11.966468    11.319829    0.024390    -18.327538    -12.603169    -17.970423    -44.052711    9.041955    -36.966618    -28.469748    -26.834900    -25.844486    -42.885223    -15.702365    -7.145772    1.825918    16.220520    -21.993286    53.636246    4.183683    10.697043    93.615059    4.337566    7.528831    32.189213    16.867615    -19.319986    3.665490    -11.349208    17.564922    -3.814959    -8.734823    0.602655    37.894283    0.000000    0.000000    0.000000    -15.518206    1.934146    -7.301449    6.577402    27.128567    -2.472503    5.297429    -21.555452    -17.404377    0.000000    0.000000    0.000000    
24.275757    156.377838    -35.351612    1.594261    -0.723186    -43.512280    3.266116    -1.496502    2.268164    -2.467393    2.194053    0.787538    18.843744    -4.203959    15.449689    -10.578282    9.773057    11.967566    11.334428    0.012440    -18.331730    -12.609238    -17.964289    -44.032921    9.038110    -36.987499    -28.468311    -26.840021    -25.866760    -42.886532    -15.646952    -7.079769    1.821997    16.233625    -21.946459    53.643135    4.214324    10.636888    93.620178    4.401103    7.452816    32.172924    16.868589    -19.316822    3.651540    -11.360615    17.571552    -3.813804    -8.731379    0.587942    37.903587    0.000000    0.000000    0.000000    -15.525412    1.887496    -7.293240    6.571394    27.220806    -2.664843    5.411781    -21.532814    -17.203489    0.000000    0.000000    0.000000    
24.274981    156.376221    -35.341602    1.601961    -0.721545    -43.517757    3.253834    -1.499767    2.261793    -2.432271    2.186674    0.784628    18.830189    -4.218578    15.447055    -10.580549    9.783852    11.965861    11.324677    0.022551    -18.334007    -12.587068    -17.943785    -44.024517    9.055188    -37.037945    -28.456095    -26.846672    -25.917072    -42.890507    -15.619478    -7.007275    1.809060    16.274803    -21.874262    53.666084    4.257059    10.570725    93.622528    4.451869    7.353644    32.129837    16.866184    -19.322580    3.648582    -11.368347    17.582081    -3.810176    -8.734201    0.568944    37.911808    0.000000    0.000000    0.000000    -15.529366    1.926015    -7.300025    6.566353    27.144905    -2.418959    5.307095    -21.572203    -17.436975    0.000000    0.000000    0.000000    
24.276375    156.376404    -35.330849    1.606678    -0.721601    -43.526512    3.245548    -1.499648    2.250964    -2.403574    2.183643    0.780459    18.847301    -4.208783    15.457417    -10.620890    9.763068    11.970878    11.324956    0.016444    -18.334232    -12.583397    -17.920744    -44.013386    9.074930    -37.075119    -28.447409    -26.842968    -25.960127    -42.875847    -15.581914    -6.953824    1.812352    16.328621    -21.829927    53.687412    4.354842    10.593638    93.614822    4.472557    7.277881    32.086548    16.864710    -19.324045    3.667392    -11.370880    17.592644    -3.807574    -8.722905    0.565417    37.905865    0.000000    0.000000    0.000000    -15.538859    1.921999    -7.273259    6.583516    27.141527    -2.465631    5.321910    -21.566849    -17.416439    0.000000    0.000000    0.000000    
24.274994    156.378250    -35.320164    1.610232    -0.722927    -43.531651    3.235778    -1.498189    2.240182    -2.380814    2.181136    0.776420    18.843544    -4.220015    15.459662    -10.610810    9.760544    11.972343    11.330499    0.019668    -18.335333    -12.580409    -17.926098    -44.014595    9.070111    -37.094936    -28.438961    -26.827288    -25.989445    -42.878639    -15.534251    -6.880411    1.808427    16.371429    -21.755421    53.711330    4.385702    10.534272    93.603233    4.561056    7.208853    32.030621    16.863546    -19.323963    3.660886    -11.380823    17.597200    -3.800537    -8.722605    0.562705    37.907181    0.000000    0.000000    0.000000    -15.542320    1.874422    -7.277310    6.567284    27.226021    -2.678432    5.422623    -21.528370    -17.194632    0.000000    0.000000    0.000000    
